<?xml version="1.0" encoding="utf-8"?>
<!-- Generator: Adobe Illustrator 24.2.0, SVG Export Plug-In . SVG Version: 6.00 Build 0)  -->
<svg version="1.1" id="Layer_1" xmlns="http://www.w3.org/2000/svg" xmlns:xlink="http://www.w3.org/1999/xlink" x="0px" y="0px"
	 viewBox="0 0 432 449" style="enable-background:new 0 0 432 449;" xml:space="preserve">
<style type="text/css">
	.st0{fill:#353535;}
</style>
<g>
	<path class="st0" d="M199.1,360c0-7.7,0.1-15.5,0-23.2c0-4.9,1.7-8.9,5.2-12.4c23.7-23.7,47.3-47.6,71.3-71.1
		c14.2-13.9,31.4-18.2,50.4-12.2c18.9,5.9,30.3,19.3,33.9,38.7c3,16.1-1,30.8-12.4,42.5c-24.1,24.8-48.8,49-73.2,73.4
		c-3.3,3.3-7.4,4.6-11.9,4.6c-15.5,0-30.9,0.1-46.4,0c-10.2-0.1-16.7-6.7-16.7-17C199.1,375.5,199.1,367.7,199.1,360z M230.9,368.2
		c8.3,0,16.1,0.1,23.8-0.1c1.1,0,2.4-0.7,3.2-1.5c21.9-21.8,43.8-43.7,65.5-65.7c7.4-7.5,7.2-18.4-0.1-25.4
		c-7.1-6.9-17.9-6.9-25.2,0.4c-21.9,21.7-43.6,43.5-65.4,65.3c-0.8,0.8-1.7,2-1.7,3.1C230.9,352.1,230.9,360,230.9,368.2z"/>
	<path class="st0" d="M278.8,129.2c-0.4,44.3-36.6,80-80.5,79.4c-44.5-0.6-79.6-36.7-79.1-81.6c0.5-43.4,37-78.7,80.9-78.2
		C243.8,49.2,279.2,85.4,278.8,129.2z M199,80.7c-26.5,0.1-47.8,21.4-47.8,47.9c0,26.7,21.4,48,48.1,48c26.2,0,47.7-21.6,47.7-48
		C247,102.3,225.3,80.6,199,80.7z"/>
	<path class="st0" d="M230.7,240.6c0,10.6,0,21,0,31.8c-1.7,0-3.1,0-4.6,0c-30.2,0-60.4-0.1-90.6,0c-15.8,0-28.4,10.3-31.6,25.6
		c-0.5,2.2-0.6,4.5-0.6,6.7c0,20.2,0,40.4,0,60.7c0,0.8,0.1,1.7,0.2,2.8c26.5,0,52.7,0,79.3,0c0,10.7,0,21.1,0,32.1
		c-1.4,0-2.7,0-4,0c-29.7,0-59.4,0-89.1,0c-12.1,0-18.3-6.3-18.3-18.5c0-25.3,0-50.7,0-76c0-32.7,21.4-58.5,53.4-64.4
		c3.7-0.7,7.4-0.9,11.2-0.9c30.4-0.1,60.9,0,91.3,0C228.3,240.4,229.4,240.5,230.7,240.6z"/>
</g>
</svg>
