<?xml version="1.0" encoding="utf-8"?>
<!-- Generator: Adobe Illustrator 24.2.0, SVG Export Plug-In . SVG Version: 6.00 Build 0)  -->
<svg version="1.1" id="Layer_1" xmlns="http://www.w3.org/2000/svg" xmlns:xlink="http://www.w3.org/1999/xlink" x="0px" y="0px"
	 viewBox="0 0 494 431" style="enable-background:new 0 0 494 431;" xml:space="preserve">
<style type="text/css">
	.st0{fill:#919191;}
</style>
<g>
	<path class="st0" d="M415.1,131.4c-112.4,0-224.1,0-336.2,0c0,1.5,0,2.8,0,4.2c0,60.8,0,121.6,0,182.3c0,5,0,5,5.2,5
		c108.6,0,217.3,0,325.9,0c5,0,5,0,5-4.8c0-26.8,0-53.7,0-80.5c0-1.4,0-2.7,0-4.3c4,0,7.8,0,12,0c0,1.3,0,2.5,0,3.8
		c0,27.5,0,54.9,0,82.4c0,10.2-5.3,15.5-15.4,15.5c-19.4,0-38.8,0-58.1,0c-1.4,0-2.7,0-4.5,0c0,1.6,0,3,0,4.3
		c0,11.4,0.1,22.7,0,34.1c-0.1,12.5-9.1,21.5-21.6,21.5c-53.6,0-107.3,0-160.9,0c-12.5,0-21.5-9.1-21.6-21.5
		c-0.1-12.6,0-25.2,0-38.4c-1.5,0-2.8,0-4.1,0c-19.5,0-39,0-58.5,0c-10.2,0-15.4-5.3-15.4-15.5c0-77.5,0-155,0-232.5
		c0-10.4,5.2-15.6,15.6-15.6c10.6,0,21.2,0,32.1,0c0,4,0,7.8,0,12c-5.6,0-11.2,0-16.8,0c-5.3,0-10.5,0.1-15.8,0
		c-2.1,0-3.3,0.5-3.3,2.9c0.1,10.8,0,21.7,0,32.8c112,0,223.8,0,336.1,0c0-5.2,0-10.4,0-15.5c0-5.6-0.1-11.2,0-16.8
		c0-2.4-0.7-3.5-3.2-3.3c-1,0.1-2,0-3,0c-92.3,0-184.5,0-276.8,0c-1.5,0-3,0-4.8,0c0-3.9,0-7.7,0-11.9c5.7,0,11.5,0,17.7,0
		c0-5,0-9.6,0-14.1c0.1-13,9-21.9,21.9-21.9c53.4,0,106.8,0,160.1,0c13,0,21.9,8.9,21.9,21.9c0,4.5,0,9,0,14c1.5,0,2.8,0,4.1,0
		c19.8,0,39.5,0,59.3,0c9,0,14.7,5.5,14.7,14.3c0,44.2,0,88.4,0,132.5c0,0.8,0,1.7,0,2.7c-4.1,0-7.8,0-11.9,0
		C415.1,191.1,415.1,161.4,415.1,131.4z M157,71c60.2,0,120,0,180,0c0-4.1,0-8,0-11.8c0-8.9-3-11.9-11.9-11.9
		c-52.1,0-104.2,0-156.3,0c-1.1,0-2.3,0-3.4,0.1c-4.5,0.4-8.1,3.7-8.3,8.2C156.8,60.6,157,65.7,157,71z M157.1,352.6
		c60.1,0,119.8,0,179.6,0c0-6,0-11.8,0-17.5c-60,0-119.7,0-179.6,0C157.1,341,157.1,346.6,157.1,352.6z M337,365.1
		c-60.2,0-120,0-180,0c0,2,0,3.7,0,5.4c0,9.5,2.8,12.3,12.2,12.3c51.9,0,103.7,0,155.6,0c1.1,0,2.3,0,3.4,0c5.1-0.3,8.6-3.8,8.9-8.8
		C337.1,371.1,337,368.2,337,365.1z"/>
	<path class="st0" d="M235,227.4c0,25.1,0,50.2,0,75.3c0,6.4-1.9,8.2-8.3,8.2c-42.5,0-85,0-127.5,0c-6.4,0-8.2-1.9-8.2-8.2
		c0-50.4,0-100.8,0-151.3c0-6.4,1.9-8.2,8.3-8.2c42.5,0,85,0,127.5,0c6.4,0,8.2,1.9,8.3,8.2C235,176.8,235,202.1,235,227.4z
		 M222.8,155.4c-40.2,0-79.9,0-119.7,0c0,35.2,0,70.2,0,105.3c3.1-1.3,5.9-2.6,8.8-3.7c8.5-3.2,17.1-6.4,25.5-9.7
		c1.2-0.4,2.5-1.3,3-2.4c1.2-2.8,2-5.8,3-8.7c-7.8-5.1-10.8-12.1-10.6-20.9c0.2-9.1,0-18.2,0.1-27.3c0.1-11.8,9.2-20.8,21-20.9
		c5.7-0.1,11.5,0,17.2,0c12.7,0.1,21.6,9,21.7,21.7c0.1,8-0.3,16,0.1,23.9c0.4,9.7-1.8,18.1-10.6,23.5c0.6,1.9,1.3,3.6,1.6,5.3
		c0.7,3.7,2.8,5.5,6.4,6.7c7.1,2.3,14,5.1,21,7.8c3.8,1.4,7.5,3,11.3,4.6C222.8,225.5,222.8,190.6,222.8,155.4z M223,298.8
		c0-4.5,0-8.7,0-12.8c0-8.7-3.6-14.1-11.7-17.2c-8.5-3.3-17.1-6.3-25.6-9.6c-2-0.8-3.1-0.4-4.3,1.3c-4.1,5.7-8.3,11.2-12.6,16.8
		c-3.9,5.1-7.8,5.1-11.7-0.1c-4.2-5.6-8.5-11.1-12.6-16.8c-1.1-1.6-2.1-2-4-1.2c-9,3.5-18,6.7-27,10.2c-5.5,2.1-9.4,6.2-10,12.1
		c-0.6,5.7-0.1,11.6-0.1,17.4C143.1,298.8,182.8,298.8,223,298.8z M144.9,203c0,4.9-0.1,9.7,0,14.6c0.1,5.7,3.7,9.3,9.4,9.4
		c5.7,0.1,11.5,0.1,17.2,0c5.7-0.1,9.3-3.8,9.3-9.5c0.1-9.6,0.1-19.2,0-28.8c0-5.9-3.7-9.5-9.6-9.6c-5.6-0.1-11.2-0.1-16.8,0
		c-5.9,0.1-9.4,3.7-9.5,9.7C144.9,193.6,144.9,198.3,144.9,203z M162.9,265c3.2-4.3,5.9-8.1,8.9-11.8c1.9-2.3,2.2-4.2,1.2-7
		c-2.6-7.1-2.5-7.1-9.8-7.1c-8,0-8.1,0-10.5,7.6c-0.4,1.4-0.8,3.4-0.1,4.4C155.7,255.7,159.2,260.1,162.9,265z"/>
	<path class="st0" d="M331.1,263c12.2,0,24.5,0,36.7,0c14.7,0,23.2,8.5,23.2,23.3c0,2.4,0.1,4.8-0.3,7.1
		c-1.8,10.3-10.2,17.5-20.8,17.5c-26,0.1-52,0.1-78,0c-11.8-0.1-20.7-9.2-20.9-21c0-3-0.2-6,0.2-9c1.6-10.4,10.2-17.8,20.8-17.9
		C305.1,262.9,318.1,263,331.1,263z M330.8,299c12.7,0,25.5,0,38.2,0c6.4,0,9.9-3.6,10-10c0-1.6,0.1-3.2,0-4.9c-0.2-5.3-3.7-9-9-9.1
		c-26-0.1-51.9-0.1-77.9,0c-5.3,0-8.8,3.7-9.1,9c-0.1,1.4,0,2.7,0,4.1c0,7.4,3.4,10.8,10.7,10.8C306,299,318.4,299,330.8,299z"/>
	<path class="st0" d="M295,167c0.1,13.2-10.7,24.1-24,24.1c-13.3,0-24-10.8-24-24c0-13.1,10.7-23.8,23.8-23.9
		C284,143.1,294.9,153.8,295,167z M259,166.8c-0.1,6.6,5,12,11.6,12.3c6.7,0.2,12.3-5.2,12.4-11.8c0.1-6.5-5.2-11.9-11.8-12.1
		C264.7,155,259.1,160.4,259,166.8z"/>
	<path class="st0" d="M271.1,203.1c13.2,0,24,10.9,23.9,24.1c-0.1,13.1-10.8,23.8-23.9,23.8c-13.3,0-24.1-10.7-24.1-24
		C246.9,213.8,257.8,203.1,271.1,203.1z M282.9,227c0-6.5-5.4-11.9-11.9-11.9c-6.5,0-12,5.4-12,11.8c0,6.7,5.4,12.2,12.1,12.1
		C277.7,238.9,283,233.5,282.9,227z"/>
	<path class="st0" d="M307.1,160.9c0-4,0-7.7,0-11.5c19.9,0,39.6,0,59.5,0c0,3.7,0,7.5,0,11.5C347,160.9,327.2,160.9,307.1,160.9z"
		/>
	<path class="st0" d="M307.2,209.2c19.9,0,39.6,0,59.6,0c0,3.9,0,7.6,0,11.6c-19.8,0-39.6,0-59.6,0
		C307.2,217,307.2,213.3,307.2,209.2z"/>
	<path class="st0" d="M402.8,173.3c0,3.9,0,7.6,0,11.6c-15.9,0-31.6,0-47.6,0c0-3.8,0-7.6,0-11.6C371,173.3,386.7,173.3,402.8,173.3
		z"/>
	<path class="st0" d="M402.8,233.3c0,4,0,7.6,0,11.5c-15.9,0-31.5,0-47.5,0c0-3.7,0-7.5,0-11.5C371,233.3,386.7,233.3,402.8,233.3z"
		/>
	<path class="st0" d="M342.8,173.4c0,3.9,0,7.6,0,11.5c-11.9,0-23.5,0-35.5,0c0-3.7,0-7.5,0-11.5
		C318.9,173.4,330.7,173.4,342.8,173.4z"/>
	<path class="st0" d="M342.8,233.3c0,3.9,0,7.6,0,11.5c-11.9,0-23.7,0-35.7,0c0-3.8,0-7.5,0-11.5
		C318.9,233.3,330.7,233.3,342.8,233.3z"/>
	<path class="st0" d="M379.2,149.8c8,0,15.7,0,23.5,0c0,3.9,0,7.6,0,11.5c-7.8,0-15.6,0-23.5,0C379.2,157.4,379.2,153.6,379.2,149.8
		z"/>
	<path class="st0" d="M379.2,220.9c0-3.9,0-7.6,0-11.5c7.8,0,15.6,0,23.6,0c0,3.8,0,7.5,0,11.5C395,220.9,387.3,220.9,379.2,220.9z"
		/>
	<path class="st0" d="M91.1,95.4c3.9,0,7.5,0,11.5,0c0,3.8,0,7.5,0,11.6c-3.7,0-7.5,0-11.5,0C91.1,103.3,91.1,99.6,91.1,95.4z"/>
	<path class="st0" d="M115.1,107.1c0-3.9,0-7.6,0-11.6c3.9,0,7.7,0,11.6,0c0,3.8,0,7.6,0,11.6C122.9,107.1,119.2,107.1,115.1,107.1z
		"/>
	<path class="st0" d="M150.8,95.5c0,3.8,0,7.5,0,11.5c-3.8,0-7.6,0-11.6,0c0-3.7,0-7.5,0-11.5C142.9,95.5,146.6,95.5,150.8,95.5z"/>
	<path class="st0" d="M402.7,107.1c-3.9,0-7.5,0-11.5,0c0-3.9,0-7.7,0-11.6c3.8,0,7.5,0,11.5,0C402.7,99.1,402.7,102.9,402.7,107.1z
		"/>
</g>
</svg>
