<?xml version="1.0" encoding="utf-8"?>
<!-- Generator: Adobe Illustrator 24.2.0, SVG Export Plug-In . SVG Version: 6.00 Build 0)  -->
<svg version="1.1" id="Layer_1" xmlns="http://www.w3.org/2000/svg" xmlns:xlink="http://www.w3.org/1999/xlink" x="0px" y="0px"
	 viewBox="0 0 494 431" style="enable-background:new 0 0 494 431;" xml:space="preserve">
<style type="text/css">
	.st0{fill:#919191;}
</style>
<g>
	<path class="st0" d="M93,407.1c-12.4-4.9-15.5-9.7-15.5-23.2c0-15.2,0-30.4,0-45.7c0-1.5,0-3,0.4-4.4c0.8-2.8,2.8-4.1,5.6-3.9
		c2.9,0.2,4.6,1.8,5,4.6c0.2,1.2,0.1,2.5,0.1,3.7c0,15.8,0,31.7,0,47.5c0,7.6,2.6,10.1,10.1,10.1c73.5,0,147,0,220.5,0
		c7.6,0,10-2.4,10-10.1c0-104.8,0-209.6,0-314.4c0-8-2.2-10.2-10.2-10.2c-73.2,0-146.5,0-219.7,0c-8.5,0-10.7,2.2-10.7,10.6
		c0,77.8,0,155.7,0,233.5c0,1.5,0,3-0.1,4.5c-0.3,3.1-2.3,4.8-5.2,4.9c-2.9,0.2-5-1.5-5.7-4.4c-0.3-1.2-0.3-2.5-0.3-3.7
		c0-78.6,0-157.2,0-235.8c0-13.3,7.6-20.8,20.9-20.9c2.2,0,4.5,0,7.3,0c0-2,0-3.6,0-5.3c0-13.1,7.6-20.7,20.6-20.7
		c18.5,0,37,0,55.5,0c55.1,0,110.2,0,165.4,0c14.3,0,21.6,7.4,21.6,21.7c0,13.2,0,26.4,0,39.7c0,1.2,0,2.5-0.3,3.7
		c-0.7,2.9-2.7,4.6-5.7,4.4c-3.1-0.2-5.2-2-5.2-5.3c-0.1-6-0.1-12-0.1-18c0-8.2,0-16.5,0-24.7c0-7.9-2.5-10.4-10.3-10.4
		c-73.2,0-146.5,0-219.7,0c-8.5,0-10.7,2.2-10.7,10.6c0,1.2,0,2.5,0,4.2c1.8,0,3.4,0,5,0c66.4,0,132.7,0.2,199.1-0.2
		c14.2-0.1,21.9,9.9,21.9,21.7c-0.3,97.7-0.1,195.4-0.1,293c0,1.6,0,3.2,0,5.2c3.1,0,5.9,0.3,8.7-0.1c3.1-0.4,5.1-2.5,5.8-5.6
		c0.3-1.7,0.4-3.5,0.4-5.2c0-80.3,0-160.7,0-241c0-1.4-0.1-2.8,0.1-4.1c0.3-3,2.1-4.8,5-5.1c3-0.3,5,1.3,5.8,4.2
		c0.3,1.2,0.3,2.5,0.3,3.7c0,81.3,0,162.7,0,244c0,13-7.7,20.6-20.8,20.6c-2.2,0-4.5,0-7.5,0c1.5,12.5-2.2,22-15,26.1
		C248,407.1,170.5,407.1,93,407.1z"/>
	<path class="st0" d="M383.1,227c0-25.7,0-51.4,0-77.1c0-9.9,4.7-14.6,14.7-14.6c9,0,18,0,27,0c8.4,0,13.6,5.1,13.6,13.5
		c0.1,52.4,0,104.8,0,157.1c0,1.8-0.6,3.7-1.4,5.3c-5.6,11.4-11.4,22.7-17,34.1c-2,3.9-4.6,7-9.3,7c-4.7,0-7.3-3.1-9.3-7
		c-5.5-11.1-11.1-22-16.5-33.1c-1.1-2.3-1.8-5-1.8-7.5C383.1,278.9,383.1,252.9,383.1,227z M427,301.5c0-40.1,0-79.8,0-119.6
		c-10.9,0-21.6,0-32.4,0c0,40,0,79.8,0,119.6C405.6,301.5,416.1,301.5,427,301.5z M394.4,170.2c11,0,21.7,0,32.8,0
		c0-7.4,0.1-14.5-0.1-21.7c0-0.7-1.6-1.9-2.5-1.9c-9.2-0.1-18.5-0.1-27.7,0c-0.9,0-2.4,1.2-2.4,1.8
		C394.4,155.7,394.4,162.8,394.4,170.2z M410.8,338.8c4.4-8.8,8.6-17.1,12.8-25.6c-8.8,0-17,0-25.6,0
		C402.3,321.8,406.4,330,410.8,338.8z"/>
	<path class="st0" d="M235.6,142.7c0,16.1,0,32.2,0,48.3c0,9.6-5.2,14.8-14.8,14.8c-32.1,0-64.2,0-96.3,0c-9.5,0-14.8-5.3-14.8-14.9
		c0-32,0-64.1,0-96.1c0-9.5,5.3-14.7,14.9-14.7c32.1,0,64.2,0,96.3,0c9.6,0,14.7,5.1,14.7,14.8C235.6,110.8,235.6,126.8,235.6,142.7
		z M120.9,142.5c0,15.7,0,31.4,0,47.1c0,4.8,0.1,4.9,4.8,4.9c31.4,0,62.7,0,94.1,0.1c3.6,0,4.7-1,4.7-4.7c-0.1-31.4-0.1-62.8,0-94.2
		c0-3.8-1.3-4.5-4.8-4.5c-31.4,0.1-62.7,0.1-94.1,0.1c-4.7,0-4.7,0-4.7,4.9C120.9,111.6,120.9,127.1,120.9,142.5z"/>
	<path class="st0" d="M159.4,324.3c2.7-2.8,5.6-5.9,8.5-9c2.9-2.9,6.1-3.3,8.6-1c2.5,2.3,2.5,5.5-0.3,8.6c-3.3,3.6-6.8,7-9.9,10.7
		c-1.2,1.5-2.1,3.7-2.2,5.5c-0.2,8.2-0.1,16.5-0.1,24.7c-0.1,8.6-4.7,13.2-13.2,13.2c-9.4,0-18.7,0-28.1,0c-8.2,0-13-4.8-13-13.1
		c0-9.4,0-18.7,0-28.1c0-8.2,4.7-13,13-13.1c9.4-0.1,18.7-0.1,28.1,0C153.4,322.9,156.1,323.7,159.4,324.3z M120.9,334.3
		c4.1,6.1,8,11.9,12.1,17.9c5.7-6.1,11.1-11.8,16.8-17.9C139.7,334.3,130.4,334.3,120.9,334.3z M152.4,365.6c0-5.7,0-11.2,0-17.6
		c-5.8,6.1-10.9,11.6-16.5,17.6C141.9,365.6,147,365.6,152.4,365.6z M121.1,354.9c0,4.2,0,7.4,0,10.5c2.4,0,4.5,0,7,0
		C125.8,361.9,123.7,358.8,121.1,354.9z"/>
	<path class="st0" d="M208.8,302.3c-30.1,0-60.2,0-90.3,0c-1.1,0-2.3,0.1-3.4-0.1c-3.2-0.3-5.5-2.7-5.5-5.6c0-3.1,2.4-5.4,5.8-5.6
		c1-0.1,2,0,3,0c60.3,0,120.7,0,181,0c1.1,0,2.3-0.1,3.4,0c3.2,0.3,5.1,2,5.4,5.2c0.3,3-1.8,5.5-5,5.9c-1.2,0.2-2.5,0.1-3.7,0.1
		C269.3,302.3,239.1,302.3,208.8,302.3z"/>
	<path class="st0" d="M209,238.6c-30.2,0-60.5,0-90.7,0c-1.4,0-2.8,0.1-4.1-0.2c-2.9-0.7-4.6-2.7-4.5-5.6c0.2-3.1,2-5,5.2-5.3
		c1-0.1,2,0,3,0c60.7,0,121.4,0,182.1,0c1,0,2-0.1,3,0c3,0.3,4.9,2,5.2,5c0.3,3.2-1.4,5.2-4.4,6c-1.3,0.3-2.7,0.2-4.1,0.2
		C269.4,238.7,239.2,238.6,209,238.6z"/>
	<path class="st0" d="M209.3,270.4c-30.3,0-60.7,0-91,0c-5.8,0-8.5-1.8-8.5-5.5c-0.1-3.8,2.8-5.7,8.4-5.7c60.6,0,121.1,0,181.7,0
		c0.2,0,0.5,0,0.7,0c5.1,0,7.7,1.9,7.7,5.6c0,3.7-2.5,5.6-7.6,5.6c-21.5,0-43,0-64.4,0C227.2,270.4,218.2,270.4,209.3,270.4z"/>
	<path class="st0" d="M242.8,355.5c-19.2,0-38.5,0-57.7,0c-1.6,0-3.7,0-4.6-0.9c-1.4-1.5-2.8-3.9-2.4-5.6c0.3-1.7,2.6-3.3,4.3-4.4
		c0.9-0.6,2.4-0.2,3.7-0.2c38,0,76,0,114,0c0.9,0,1.8,0,2.6,0c3.5,0.3,5.7,2.6,5.7,5.7c-0.1,3.1-2.4,5.4-5.9,5.4
		c-5.6,0.1-11.2,0-16.9,0C271.3,355.5,257,355.5,242.8,355.5z"/>
	<path class="st0" d="M277.5,150.4c-7.7,0-15.5,0-23.2,0c-4.4,0-6.9-2.1-6.8-5.7c0.1-3.4,2.5-5.5,6.6-5.5c15.9,0,31.7,0,47.6,0
		c4.1,0,6.6,2.2,6.6,5.5c0.1,3.5-2.4,5.7-6.8,5.7C293.5,150.4,285.5,150.4,277.5,150.4z"/>
	<path class="st0" d="M277.5,118.6c-8,0-16,0.1-24,0c-4.5-0.1-7.5-3.9-5.6-7.4c0.9-1.7,3.5-3.6,5.4-3.6c16.3-0.3,32.7-0.2,49.1-0.1
		c3.7,0,5.8,2.3,5.9,5.4c0.1,3.3-2.2,5.6-6,5.7C294,118.7,285.8,118.6,277.5,118.6z"/>
	<path class="st0" d="M277.7,184.4c-7.7,0-15.5,0-23.2,0c-4.7,0-7.2-2.1-7.1-5.8c0.1-3.5,2.5-5.4,7.1-5.4c15.6,0,31.2,0,46.8,0
		c4.6,0,7.1,2.3,6.9,6c-0.2,3.2-2.5,5.1-6.6,5.2C293.7,184.4,285.7,184.4,277.7,184.4z"/>
	<path class="st0" d="M156.2,145.8c-13.5-13-10.4-29.5-1.7-38.1c10.1-9.9,26-10,36.1-0.1c9,8.8,11.8,25.7-1.6,38.2
		c12,8.7,11.6,21.5,11,34.2c-0.1,3.5-2.4,5.4-5.9,5.5c-5.6,0.1-11.2,0.1-16.9,0c-3.6-0.1-5.8-2.3-5.9-5.5c-0.1-3.3,2.2-5.6,6-5.7
		c3.6-0.1,7.2,0,10.8,0c2.8-9.7-2.1-19.4-10.9-22.1c-8.4-2.5-17.4,2.1-20,10.5c-0.7,2.2-0.8,4.6-0.9,7c-0.2,3.6,0.1,7.2-0.2,10.8
		c-0.3,3.2-2.5,4.9-5.6,4.9c-2.9-0.1-5.1-1.8-5.2-4.8C144.7,167.7,143.9,154.8,156.2,145.8z M187,125.9c0-7.9-6.3-14.3-14.2-14.4
		c-8-0.1-14.6,6.4-14.6,14.4c0,8.1,6.5,14.5,14.6,14.4C180.8,140.1,187,133.8,187,125.9z"/>
</g>
</svg>
