<?xml version="1.0" encoding="utf-8"?>
<!-- Generator: Adobe Illustrator 24.2.0, SVG Export Plug-In . SVG Version: 6.00 Build 0)  -->
<svg version="1.1" xmlns="http://www.w3.org/2000/svg" xmlns:xlink="http://www.w3.org/1999/xlink" x="0px" y="0px"
	 viewBox="0 0 283.5 131.4" style="enable-background:new 0 0 283.5 131.4;" xml:space="preserve">
<style type="text/css">
	.st0{fill:none;stroke:#424242;stroke-width:0.5;stroke-linecap:round;stroke-linejoin:round;stroke-miterlimit:10;}
</style>
<g id="Layer_2">
</g>
<g id="Layer_1">
</g>
<g id="Layer_3">
	<g>
		<g>
			<g>
				<g>
					<polyline class="st0" points="153.1,115.6 153.1,118 155.5,118 157.2,119.7 158.9,118 161.4,118 161.4,112.2 157.2,108 					
						"/>
					<polygon class="st0" points="161.4,127.3 163.1,125.6 161.4,123.9 161.4,121.5 158.9,121.5 157.2,119.7 155.5,121.5 
						153.1,121.5 153.1,123.9 151.4,125.6 153.1,127.3 153.1,129.7 155.5,129.7 157.2,131.4 158.9,129.7 161.4,129.7 					"/>
					<polyline class="st0" points="139.7,125.6 143.8,129.7 149.7,129.7 149.7,127.3 151.4,125.6 149.7,123.9 149.7,121.5 					"/>
				</g>
				<g>
					<polyline class="st0" points="157.2,91.5 158.9,93.2 161.4,93.2 161.4,99.1 157.2,103.2 					"/>
					<polyline class="st0" points="153.1,81.5 155.5,81.5 157.2,79.8 158.9,81.5 161.4,81.5 161.4,84 					"/>
					<polyline class="st0" points="161.4,89.8 158.9,89.8 157.2,91.5 155.5,89.8 153.1,89.8 					"/>
				</g>
			</g>
		</g>
		<g>
			<g>
				<g>
					<path class="st0" d="M161.4,47.5"/>
				</g>
				<g>
					<polyline class="st0" points="153.1,1.7 155.5,1.7 157.2,0 158.9,1.7 161.4,1.7 161.4,4.1 163.1,5.8 161.4,7.6 					"/>
				</g>
			</g>
		</g>
		<path class="st0" d="M161.4,59.2"/>
		<polyline class="st0" points="157.2,79.8 158.9,78.1 161.4,78.1 161.4,72.3 157.2,68.1 		"/>
		<g>
			<path class="st0" d="M161.4,59.2"/>
			<polyline class="st0" points="182.4,63.6 186.8,53 183.7,49.9 179.4,49.9 175,60.5 			"/>
			<polyline class="st0" points="167.6,78.5 170.6,81.5 175,81.5 179.4,71 189.9,75.3 193,72.3 			"/>
			<path class="st0" d="M172,67.9"/>
			<polyline class="st0" points="182.4,67.9 193,63.5 193,59.2 189.9,56.1 179.4,60.5 			"/>
			<polyline class="st0" points="172,63.6 161.4,67.9 161.4,72.3 164.4,75.3 175,71 179.4,81.5 183.7,81.5 			"/>
			<polyline class="st0" points="172,67.9 174.1,68.8 175,71 177.2,70.1 179.4,71 180.2,68.8 182.4,67.9 181.5,65.7 182.4,63.6 
				180.2,62.7 179.4,60.5 177.2,61.4 175,60.5 174.1,62.7 172,63.6 			"/>
		</g>
		<g>
			<g>
				<polyline class="st0" points="172,107.8 167.6,118.4 170.6,121.4 175,121.4 				"/>
				<polyline class="st0" points="179.4,110.9 189.9,115.2 193,112.2 193,107.8 182.4,103.5 186.8,92.9 183.7,89.8 179.4,89.8 
					175,100.4 164.4,96 161.4,99.1 				"/>
				<polyline class="st0" points="179.4,100.4 175,89.8 170.6,89.8 167.6,92.9 172,103.5 161.4,107.8 161.4,112.2 164.4,115.2 
					175,110.9 179.4,121.4 183.7,121.4 186.8,118.4 182.4,107.8 193,103.4 193,99.1 				"/>
				<polyline class="st0" points="182.4,103.5 180.2,102.6 179.4,100.4 177.2,101.3 175,100.4 174.1,102.6 172,103.5 172.8,105.6 
					172,107.8 174.1,108.7 175,110.9 177.2,110 179.4,110.9 180.2,108.7 182.4,107.8 				"/>
			</g>
			<g>
				<g>
					<polygon class="st0" points="201.3,112.2 197.2,108 193,112.2 193,115.6 193,118 195.4,118 197.2,119.7 198.9,118 201.3,118 
											"/>
					<polygon class="st0" points="201.3,127.3 203,125.6 201.3,123.9 201.3,121.5 198.9,121.5 197.2,119.7 195.4,121.5 193,121.5 
						193,123.9 191.3,125.6 193,127.3 193,129.7 195.4,129.7 197.2,131.4 198.9,129.7 201.3,129.7 					"/>
					<polygon class="st0" points="189.6,127.3 191.3,125.6 189.6,123.9 189.6,121.5 183.7,121.5 181.3,123.9 179.6,125.6 
						183.7,129.7 189.6,129.7 					"/>
				</g>
				<g>
					<polygon class="st0" points="201.3,99.1 197.2,103.2 193,99.1 193,95.7 193,93.2 195.4,93.2 197.2,91.5 198.9,93.2 201.3,93.2 
											"/>
					<polygon class="st0" points="201.3,84 203,85.7 201.3,87.4 201.3,89.8 198.9,89.8 197.2,91.5 195.4,89.8 193,89.8 193,87.4 
						191.3,85.7 193,84 193,81.5 195.4,81.5 197.2,79.8 198.9,81.5 201.3,81.5 					"/>
					<polygon class="st0" points="189.6,84 191.3,85.7 189.6,87.4 189.6,89.8 183.7,89.8 181.3,87.4 179.6,85.7 183.7,81.5 
						189.6,81.5 					"/>
				</g>
				<polyline class="st0" points="170.7,121.5 173.1,123.9 174.8,125.6 170.7,129.7 164.8,129.7 164.8,127.3 163.1,125.6 				"/>
				<polyline class="st0" points="170.7,81.5 164.8,81.5 164.8,84 				"/>
				<polyline class="st0" points="164.8,89.8 170.7,89.8 173.1,87.4 				"/>
			</g>
		</g>
		<g>
			<g>
				<polyline class="st0" points="170.6,41.6 175,41.6 179.4,31 189.9,35.4 193,32.3 193,28 182.4,23.6 186.8,13.1 183.7,10 
					179.4,10 175,20.6 				"/>
				<path class="st0" d="M172,28"/>
				<polyline class="st0" points="182.4,28 193,23.6 193,19.3 189.9,16.2 179.4,20.6 175,10 170.6,10 167.6,13.1 				"/>
				<polyline class="st0" points="164.4,35.4 175,31 179.4,41.6 183.7,41.6 186.8,38.5 				"/>
				<line class="st0" x1="175" y1="20.6" x2="174.1" y2="22.7"/>
				<polyline class="st0" points="172,28 174.1,28.9 175,31 177.2,30.1 179.4,31 180.2,28.9 182.4,28 181.5,25.8 182.4,23.6 
					180.2,22.7 179.4,20.6 				"/>
			</g>
			<g>
				<g>
					<polygon class="st0" points="201.3,32.3 197.2,28.2 193,32.3 193,35.8 193,38.2 195.4,38.2 197.2,39.9 198.9,38.2 201.3,38.2 
											"/>
					<polyline class="st0" points="193,44 191.3,45.8 193,47.5 193,49.9 195.4,49.9 197.2,51.6 198.9,49.9 201.3,49.9 201.3,47.5 
						203,45.8 201.3,44 201.3,41.6 198.9,41.6 197.2,39.9 195.4,41.6 					"/>
					<polygon class="st0" points="189.6,47.5 191.3,45.8 189.6,44 189.6,41.6 183.7,41.6 181.3,44 179.6,45.8 183.7,49.9 
						189.6,49.9 					"/>
				</g>
				<g>
					<polygon class="st0" points="201.3,19.3 197.2,23.4 193,19.3 193,15.8 193,13.4 195.4,13.4 197.2,11.7 198.9,13.4 201.3,13.4 
											"/>
					<polygon class="st0" points="201.3,4.1 203,5.8 201.3,7.6 201.3,10 198.9,10 197.2,11.7 195.4,10 193,10 193,7.6 191.3,5.8 
						193,4.1 193,1.7 195.4,1.7 197.2,0 198.9,1.7 201.3,1.7 					"/>
					<polygon class="st0" points="189.6,4.1 191.3,5.8 189.6,7.6 189.6,10 183.7,10 181.3,7.6 179.6,5.8 183.7,1.7 189.6,1.7 					
						"/>
				</g>
				<path class="st0" d="M164.8,47.5"/>
				<polyline class="st0" points="164.8,41.6 170.7,41.6 173.1,44 174.8,45.8 				"/>
				<polyline class="st0" points="170.7,10 173.1,7.6 174.8,5.8 170.7,1.7 164.8,1.7 164.8,4.1 163.1,5.8 164.8,7.6 				"/>
			</g>
		</g>
		<polygon class="st0" points="201.3,59.2 197.2,63.3 193,59.2 193,55.8 193,53.3 195.4,53.3 197.2,51.6 198.9,53.3 201.3,53.3 		
			"/>
		<polygon class="st0" points="201.3,72.3 197.2,68.1 193,72.3 193,75.7 193,78.1 195.4,78.1 197.2,79.8 198.9,78.1 201.3,78.1 		
			"/>
		<g>
			<polygon class="st0" points="219.3,49.9 214.9,60.5 204.4,56.1 201.3,59.2 201.3,63.5 211.9,67.9 207.5,78.5 210.6,81.5 
				214.9,81.5 219.3,71 229.9,75.3 232.9,72.3 232.9,67.9 222.3,63.6 226.7,53 223.7,49.9 			"/>
			<polygon class="st0" points="229.9,56.1 219.3,60.5 214.9,49.9 210.6,49.9 207.5,53 211.9,63.6 201.3,67.9 201.3,72.3 
				204.4,75.3 214.9,71 219.3,81.5 223.7,81.5 226.7,78.5 222.3,67.9 232.9,63.5 232.9,59.2 			"/>
			<polygon class="st0" points="214,68.8 214.9,71 217.1,70.1 219.3,71 220.2,68.8 222.3,67.9 221.4,65.7 222.3,63.6 220.2,62.7 
				219.3,60.5 217.1,61.4 214.9,60.5 214,62.7 211.9,63.6 212.8,65.7 211.9,67.9 			"/>
		</g>
		<g>
			<g>
				<polygon class="st0" points="201.3,103.4 211.9,107.8 207.5,118.4 210.6,121.4 214.9,121.4 219.3,110.9 229.9,115.2 
					232.9,112.2 232.9,107.8 222.3,103.5 226.7,92.9 223.7,89.8 219.3,89.8 214.9,100.4 204.4,96 201.3,99.1 				"/>
				<polygon class="st0" points="207.5,92.9 211.9,103.5 201.3,107.8 201.3,112.2 204.4,115.2 214.9,110.9 219.3,121.4 223.7,121.4 
					226.7,118.4 222.3,107.8 232.9,103.4 232.9,99.1 229.9,96 219.3,100.4 214.9,89.8 210.6,89.8 				"/>
				<polygon class="st0" points="220.2,108.7 222.3,107.8 221.4,105.6 222.3,103.5 220.2,102.6 219.3,100.4 217.1,101.3 
					214.9,100.4 214,102.6 211.9,103.5 212.8,105.6 211.9,107.8 214,108.7 214.9,110.9 217.1,110 219.3,110.9 				"/>
			</g>
			<g>
				<g>
					<polygon class="st0" points="241.2,112.2 237.1,108 232.9,112.2 232.9,115.6 232.9,118 235.4,118 237.1,119.7 238.8,118 
						241.2,118 					"/>
					<polygon class="st0" points="241.2,127.3 242.9,125.6 241.2,123.9 241.2,121.5 238.8,121.5 237.1,119.7 235.4,121.5 
						232.9,121.5 232.9,123.9 231.2,125.6 232.9,127.3 232.9,129.7 235.4,129.7 237.1,131.4 238.8,129.7 241.2,129.7 					"/>
					<polygon class="st0" points="229.5,127.3 231.2,125.6 229.5,123.9 229.5,121.5 223.7,121.5 221.2,123.9 219.5,125.6 
						223.7,129.7 229.5,129.7 					"/>
				</g>
				<g>
					<polygon class="st0" points="241.2,99.1 237.1,103.2 232.9,99.1 232.9,95.7 232.9,93.2 235.4,93.2 237.1,91.5 238.8,93.2 
						241.2,93.2 					"/>
					<polygon class="st0" points="241.2,84 242.9,85.7 241.2,87.4 241.2,89.8 238.8,89.8 237.1,91.5 235.4,89.8 232.9,89.8 
						232.9,87.4 231.2,85.7 232.9,84 232.9,81.5 235.4,81.5 237.1,79.8 238.8,81.5 241.2,81.5 					"/>
					<polygon class="st0" points="229.5,84 231.2,85.7 229.5,87.4 229.5,89.8 223.7,89.8 221.2,87.4 219.5,85.7 223.7,81.5 
						229.5,81.5 					"/>
				</g>
				<polygon class="st0" points="204.7,127.3 203,125.6 204.7,123.9 204.7,121.5 210.6,121.5 213,123.9 214.7,125.6 210.6,129.7 
					204.7,129.7 				"/>
				<polygon class="st0" points="204.7,84 203,85.7 204.7,87.4 204.7,89.8 210.6,89.8 213,87.4 214.7,85.7 210.6,81.5 204.7,81.5 
									"/>
			</g>
		</g>
		<g>
			<g>
				<polygon class="st0" points="201.3,23.6 211.9,28 207.5,38.5 210.6,41.6 214.9,41.6 219.3,31 229.9,35.4 232.9,32.3 232.9,28 
					222.3,23.6 226.7,13.1 223.7,10 219.3,10 214.9,20.6 204.4,16.2 201.3,19.3 				"/>
				<polygon class="st0" points="207.5,13.1 211.9,23.6 201.3,28 201.3,32.3 204.4,35.4 214.9,31 219.3,41.6 223.7,41.6 226.7,38.5 
					222.3,28 232.9,23.6 232.9,19.3 229.9,16.2 219.3,20.6 214.9,10 210.6,10 				"/>
				<polygon class="st0" points="220.2,28.9 222.3,28 221.4,25.8 222.3,23.6 220.2,22.7 219.3,20.6 217.1,21.5 214.9,20.6 214,22.7 
					211.9,23.6 212.8,25.8 211.9,28 214,28.9 214.9,31 217.1,30.1 219.3,31 				"/>
			</g>
			<g>
				<g>
					<polygon class="st0" points="241.2,32.3 237.1,28.2 232.9,32.3 232.9,35.8 232.9,38.2 235.4,38.2 237.1,39.9 238.8,38.2 
						241.2,38.2 					"/>
					<polygon class="st0" points="241.2,47.5 242.9,45.8 241.2,44 241.2,41.6 238.8,41.6 237.1,39.9 235.4,41.6 232.9,41.6 
						232.9,44 231.2,45.8 232.9,47.5 232.9,49.9 235.4,49.9 237.1,51.6 238.8,49.9 241.2,49.9 					"/>
					<polygon class="st0" points="229.5,47.5 231.2,45.8 229.5,44 229.5,41.6 223.7,41.6 221.2,44 219.5,45.8 223.7,49.9 
						229.5,49.9 					"/>
				</g>
				<g>
					<polygon class="st0" points="241.2,19.3 237.1,23.4 232.9,19.3 232.9,15.8 232.9,13.4 235.4,13.4 237.1,11.7 238.8,13.4 
						241.2,13.4 					"/>
					<polygon class="st0" points="241.2,4.1 242.9,5.8 241.2,7.6 241.2,10 238.8,10 237.1,11.7 235.4,10 232.9,10 232.9,7.6 
						231.2,5.8 232.9,4.1 232.9,1.7 235.4,1.7 237.1,0 238.8,1.7 241.2,1.7 					"/>
					<polygon class="st0" points="229.5,4.1 231.2,5.8 229.5,7.6 229.5,10 223.7,10 221.2,7.6 219.5,5.8 223.7,1.7 229.5,1.7 					
						"/>
				</g>
				<polygon class="st0" points="204.7,47.5 203,45.8 204.7,44 204.7,41.6 210.6,41.6 213,44 214.7,45.8 210.6,49.9 204.7,49.9 				
					"/>
				<polygon class="st0" points="204.7,4.1 203,5.8 204.7,7.6 204.7,10 210.6,10 213,7.6 214.7,5.8 210.6,1.7 204.7,1.7 				"/>
			</g>
		</g>
		<polygon class="st0" points="241.2,59.2 237.1,63.3 232.9,59.2 232.9,55.8 232.9,53.3 235.4,53.3 237.1,51.6 238.8,53.3 
			241.2,53.3 		"/>
		<polygon class="st0" points="241.2,72.3 237.1,68.1 232.9,72.3 232.9,75.7 232.9,78.1 235.4,78.1 237.1,79.8 238.8,78.1 
			241.2,78.1 		"/>
		<g>
			<polygon class="st0" points="259.2,49.9 254.9,60.5 244.3,56.1 241.2,59.2 241.2,63.5 251.8,67.9 247.4,78.5 250.5,81.5 
				254.8,81.5 259.2,71 269.8,75.3 272.8,72.3 272.8,67.9 262.3,63.6 266.6,53 263.6,49.9 			"/>
			<polygon class="st0" points="269.8,56.1 259.2,60.5 254.8,49.9 250.5,49.9 247.4,53 251.8,63.6 241.2,67.9 241.2,72.3 
				244.3,75.3 254.9,71 259.2,81.5 263.6,81.5 266.6,78.5 262.3,67.9 272.8,63.5 272.8,59.2 			"/>
			<polygon class="st0" points="254,68.8 254.9,71 257,70.1 259.2,71 260.1,68.8 262.3,67.9 261.4,65.7 262.3,63.6 260.1,62.7 
				259.2,60.5 257,61.4 254.9,60.5 254,62.7 251.8,63.6 252.7,65.7 251.8,67.9 			"/>
		</g>
		<g>
			<g>
				<polygon class="st0" points="241.2,103.4 251.8,107.8 247.4,118.4 250.5,121.4 254.8,121.4 259.2,110.9 269.8,115.2 
					272.8,112.2 272.8,107.8 262.3,103.5 266.6,92.9 263.6,89.8 259.2,89.8 254.9,100.4 244.3,96 241.2,99.1 				"/>
				<polygon class="st0" points="247.4,92.9 251.8,103.5 241.2,107.8 241.2,112.2 244.3,115.2 254.9,110.9 259.2,121.4 263.6,121.4 
					266.6,118.4 262.3,107.8 272.8,103.4 272.8,99.1 269.8,96 259.2,100.4 254.8,89.8 250.5,89.8 				"/>
				<polygon class="st0" points="260.1,108.7 262.3,107.8 261.4,105.6 262.3,103.5 260.1,102.6 259.2,100.4 257,101.3 254.9,100.4 
					254,102.6 251.8,103.5 252.7,105.6 251.8,107.8 254,108.7 254.9,110.9 257,110 259.2,110.9 				"/>
			</g>
			<g>
				<g>
					<polygon class="st0" points="281.1,112.2 277,108 272.9,112.2 272.9,115.6 272.9,118 275.3,118 277,119.7 278.7,118 281.1,118 
											"/>
					<polygon class="st0" points="281.1,127.3 282.9,125.6 281.1,123.9 281.1,121.5 278.7,121.5 277,119.7 275.3,121.5 272.9,121.5 
						272.9,123.9 271.1,125.6 272.9,127.3 272.9,129.7 275.3,129.7 277,131.4 278.7,129.7 281.1,129.7 					"/>
					<polygon class="st0" points="269.4,127.3 271.1,125.6 269.4,123.9 269.4,121.5 263.6,121.5 261.1,123.9 259.4,125.6 
						263.6,129.7 269.4,129.7 					"/>
				</g>
				<g>
					<polygon class="st0" points="281.1,99.1 277,103.2 272.9,99.1 272.9,95.7 272.9,93.2 275.3,93.2 277,91.5 278.7,93.2 
						281.1,93.2 					"/>
					<polygon class="st0" points="281.1,84 282.9,85.7 281.1,87.4 281.1,89.8 278.7,89.8 277,91.5 275.3,89.8 272.9,89.8 
						272.9,87.4 271.1,85.7 272.9,84 272.9,81.5 275.3,81.5 277,79.8 278.7,81.5 281.1,81.5 					"/>
					<polygon class="st0" points="269.4,84 271.1,85.7 269.4,87.4 269.4,89.8 263.6,89.8 261.1,87.4 259.4,85.7 263.6,81.5 
						269.4,81.5 					"/>
				</g>
				<polygon class="st0" points="244.6,127.3 242.9,125.6 244.6,123.9 244.6,121.5 250.5,121.5 252.9,123.9 254.6,125.6 
					250.5,129.7 244.6,129.7 				"/>
				<polygon class="st0" points="244.6,84 242.9,85.7 244.6,87.4 244.6,89.8 250.5,89.8 252.9,87.4 254.6,85.7 250.5,81.5 
					244.6,81.5 				"/>
			</g>
		</g>
		<g>
			<g>
				<polygon class="st0" points="241.2,23.6 251.8,28 247.4,38.5 250.5,41.6 254.8,41.6 259.2,31 269.8,35.4 272.8,32.3 272.8,28 
					262.3,23.6 266.6,13.1 263.6,10 259.2,10 254.9,20.6 244.3,16.2 241.2,19.3 				"/>
				<polygon class="st0" points="247.4,13.1 251.8,23.6 241.2,28 241.2,32.3 244.3,35.4 254.9,31 259.2,41.6 263.6,41.6 266.6,38.5 
					262.3,28 272.8,23.6 272.8,19.3 269.8,16.2 259.2,20.6 254.8,10 250.5,10 				"/>
				<polygon class="st0" points="260.1,28.9 262.3,28 261.4,25.8 262.3,23.6 260.1,22.7 259.2,20.6 257,21.5 254.9,20.6 254,22.7 
					251.8,23.6 252.7,25.8 251.8,28 254,28.9 254.9,31 257,30.1 259.2,31 				"/>
			</g>
			<g>
				<g>
					<polygon class="st0" points="281.1,32.3 277,28.2 272.9,32.3 272.9,35.8 272.9,38.2 275.3,38.2 277,39.9 278.7,38.2 
						281.1,38.2 					"/>
					<polygon class="st0" points="281.1,47.5 282.9,45.8 281.1,44 281.1,41.6 278.7,41.6 277,39.9 275.3,41.6 272.9,41.6 272.9,44 
						271.1,45.8 272.9,47.5 272.9,49.9 275.3,49.9 277,51.6 278.7,49.9 281.1,49.9 					"/>
					<polygon class="st0" points="269.4,47.5 271.1,45.8 269.4,44 269.4,41.6 263.6,41.6 261.1,44 259.4,45.8 263.6,49.9 
						269.4,49.9 					"/>
				</g>
				<g>
					<polygon class="st0" points="281.1,19.3 277,23.4 272.9,19.3 272.9,15.8 272.9,13.4 275.3,13.4 277,11.7 278.7,13.4 
						281.1,13.4 					"/>
					<polygon class="st0" points="281.1,4.1 282.9,5.8 281.1,7.6 281.1,10 278.7,10 277,11.7 275.3,10 272.9,10 272.9,7.6 
						271.1,5.8 272.9,4.1 272.9,1.7 275.3,1.7 277,0 278.7,1.7 281.1,1.7 					"/>
					<polygon class="st0" points="269.4,4.1 271.1,5.8 269.4,7.6 269.4,10 263.6,10 261.1,7.6 259.4,5.8 263.6,1.7 269.4,1.7 					
						"/>
				</g>
				<polygon class="st0" points="244.6,47.5 242.9,45.8 244.6,44 244.6,41.6 250.5,41.6 252.9,44 254.6,45.8 250.5,49.9 244.6,49.9 
									"/>
				<polygon class="st0" points="244.6,4.1 242.9,5.8 244.6,7.6 244.6,10 250.5,10 252.9,7.6 254.6,5.8 250.5,1.7 244.6,1.7 				"/>
			</g>
		</g>
		<polygon class="st0" points="281.1,59.2 277,63.3 272.9,59.2 272.9,55.8 272.9,53.3 275.3,53.3 277,51.6 278.7,53.3 281.1,53.3 		
			"/>
		<polygon class="st0" points="281.1,72.3 277,68.1 272.9,72.3 272.9,75.7 272.9,78.1 275.3,78.1 277,79.8 278.7,78.1 281.1,78.1 		
			"/>
	</g>
</g>
</svg>
